<svg width="55" height="55" viewBox="0 0 55 55" fill="none" xmlns="http://www.w3.org/2000/svg">
<g clip-path="url(#clip0)">
<path d="M50.2555 6.75497H42.5669C42.4111 4.06132 41.7961 2.14822 40.7373 1.07549C39.8927 0.214245 38.7518 -0.147505 37.469 0.0542401C33.871 0.616345 33.7235 5.20501 33.7778 6.75497H18.4047C18.2461 4.07941 17.6325 2.18161 16.5793 1.11027C15.7348 0.253203 14.6008 -0.101591 13.3124 0.0918065C9.73804 0.648346 9.57108 5.21336 9.61977 6.75497H4.7431C3.41158 6.75497 2.32632 7.83883 2.32632 9.17175V52.5846C2.32632 53.9161 3.41158 55 4.7431 55H34.1952C35.0481 55 36.0262 54.6007 36.7274 53.9759C36.9097 53.8382 37.0641 53.6852 37.1977 53.5029L51.6496 34.3538C52.2465 33.5704 52.6737 32.2848 52.6737 31.3011V9.17175C52.6751 7.83883 51.5898 6.75497 50.2555 6.75497ZM37.8558 2.5058C38.3233 2.42927 38.6725 2.51275 38.9703 2.81607C39.5811 3.438 39.9665 4.79596 40.082 6.75497H36.2613C36.1987 5.49302 36.374 2.73676 37.8558 2.5058ZM13.6978 2.54475C14.1695 2.46406 14.5159 2.55588 14.8109 2.85502C15.4217 3.47278 15.8043 4.81683 15.9226 6.75636H12.1047C12.0769 5.78381 12.1214 2.78824 13.6978 2.54475ZM36.6119 50.691V33.9711C36.6119 33.8278 36.726 33.7151 36.8679 33.7151H49.4221L36.6119 50.691ZM50.5115 31.3011C50.5115 31.3749 50.5032 31.4625 50.4837 31.5683C50.4072 31.5599 50.3334 31.5544 50.2555 31.5544H36.8666C35.5322 31.5544 34.4484 32.6368 34.4484 33.9711V52.5832C34.4484 52.6556 34.4512 52.7265 34.4567 52.7933C34.3566 52.8225 34.2647 52.835 34.1952 52.835H4.74031C4.59979 52.835 4.4857 52.7223 4.4857 52.579V18.5494H50.5115V31.3011ZM50.5143 16.0673H4.48848V9.17175H4.48709C4.48709 9.02983 4.60118 8.91713 4.74171 8.91713H15.9504C15.9351 9.46254 15.9059 10.0246 15.8628 10.5951C14.8485 10.9582 14.1653 11.8946 14.1653 12.9673C14.1653 14.3823 15.316 15.533 16.731 15.533C18.146 15.533 19.2966 14.3823 19.2966 12.9673C19.2966 12.2007 18.9474 11.4995 18.3268 11.0069C18.3867 10.2946 18.4256 9.59472 18.4409 8.91713H40.1056C40.0889 9.53211 40.0541 10.1707 39.9999 10.8177C39.2513 11.288 38.795 12.0908 38.795 12.9673C38.795 14.3823 39.9428 15.533 41.3606 15.533C42.7756 15.533 43.9276 14.3823 43.9276 12.9673C43.9276 12.0045 43.3683 11.1266 42.5071 10.6953C42.553 10.0984 42.585 9.50289 42.5975 8.91713H50.2583C50.3988 8.91713 50.5143 9.02983 50.5143 9.17175V16.0673Z" fill="#010002"/>
<path d="M9.64343 29.6037H10.9096C12.5054 29.6037 13.8049 28.3042 13.8049 26.7083V25.4422C13.8049 23.8463 12.5054 22.5482 10.9096 22.5482H9.64343C8.04755 22.5482 6.74942 23.8477 6.74942 25.4422V26.7083C6.74942 28.3042 8.04755 29.6037 9.64343 29.6037ZM9.23019 25.4422C9.23019 25.2154 9.41524 25.0289 9.64343 25.0289H10.9096C11.1377 25.0289 11.3228 25.2154 11.3228 25.4422V26.7083C11.3228 26.9365 11.1363 27.1229 10.9096 27.1229H9.64343C9.41524 27.1229 9.23019 26.9365 9.23019 26.7083V25.4422Z" fill="#010002"/>
<path d="M18.3839 29.6037H19.65C21.2459 29.6037 22.5454 28.3042 22.5454 26.7083V25.4422C22.544 23.8463 21.2459 22.5482 19.65 22.5482H18.3839C16.788 22.5482 15.4885 23.8477 15.4885 25.4422V26.7083C15.4885 28.3042 16.788 29.6037 18.3839 29.6037ZM17.9692 25.4422C17.9692 25.2154 18.1557 25.0289 18.3825 25.0289H19.6486C19.8768 25.0289 20.0618 25.2154 20.0618 25.4422V26.7083C20.0618 26.9365 19.8754 27.1229 19.6486 27.1229H18.3825C18.1543 27.1229 17.9692 26.9365 17.9692 26.7083V25.4422Z" fill="#010002"/>
<path d="M27.1243 29.6037H28.3905C29.9849 29.6037 31.2845 28.3042 31.2845 26.7083V25.4422C31.2845 23.8463 29.9849 22.5482 28.3905 22.5482H27.1243C25.5285 22.5482 24.2275 23.8477 24.2275 25.4422V26.7083C24.2289 28.3042 25.5285 29.6037 27.1243 29.6037ZM26.7097 25.4422C26.7097 25.2154 26.8961 25.0289 27.1215 25.0289H28.3877C28.6159 25.0289 28.8037 25.2154 28.8037 25.4422V26.7083C28.8037 26.9365 28.6159 27.1229 28.3877 27.1229H27.1215C26.8934 27.1229 26.7097 26.9365 26.7097 26.7083V25.4422Z" fill="#010002"/>
<path d="M9.64343 37.7932H10.9096C12.5054 37.7932 13.8049 36.4923 13.8049 34.8964V33.6303C13.8049 32.0358 12.5054 30.7363 10.9096 30.7363H9.64343C8.04755 30.7363 6.74942 32.0358 6.74942 33.6303V34.8964C6.74942 36.4923 8.04755 37.7932 9.64343 37.7932ZM9.23019 33.6289C9.23019 33.4007 9.41524 33.2156 9.64343 33.2156H10.9096C11.1377 33.2156 11.3228 33.4007 11.3228 33.6289V34.895C11.3228 35.1232 11.1363 35.3082 10.9096 35.3082H9.64343C9.41524 35.3082 9.23019 35.1232 9.23019 34.895V33.6289Z" fill="#010002"/>
<path d="M18.3839 37.7932H19.65C21.2459 37.7932 22.5454 36.4923 22.5454 34.8964V33.6303C22.544 32.0358 21.2459 30.7363 19.65 30.7363H18.3839C16.788 30.7363 15.4885 32.0358 15.4885 33.6303V34.8964C15.4885 36.4923 16.788 37.7932 18.3839 37.7932ZM17.9692 33.6289C17.9692 33.4007 18.1557 33.2156 18.3825 33.2156H19.6486C19.8768 33.2156 20.0618 33.4007 20.0618 33.6289V34.895C20.0618 35.1232 19.8754 35.3082 19.6486 35.3082H18.3825C18.1543 35.3082 17.9692 35.1232 17.9692 34.895V33.6289Z" fill="#010002"/>
<path d="M27.1243 37.7932H28.3905C29.9849 37.7932 31.2845 36.4923 31.2845 34.8964V33.6303C31.2845 32.0358 29.9849 30.7363 28.3905 30.7363H27.1243C25.5285 30.7363 24.2275 32.0358 24.2275 33.6303V34.8964C24.2289 36.4923 25.5285 37.7932 27.1243 37.7932ZM26.7097 33.6289C26.7097 33.4007 26.8961 33.2156 27.1215 33.2156H28.3877C28.6159 33.2156 28.8037 33.4007 28.8037 33.6289V34.895C28.8037 35.1232 28.6159 35.3082 28.3877 35.3082H27.1215C26.8934 35.3082 26.7097 35.1232 26.7097 34.895V33.6289Z" fill="#010002"/>
<path d="M9.64343 45.9799H10.9096C12.5054 45.9799 13.8049 44.679 13.8049 43.0859V41.8184C13.8049 40.2239 12.5054 38.9244 10.9096 38.9244H9.64343C8.04755 38.9244 6.74942 40.2253 6.74942 41.8184V43.0859C6.74942 44.6804 8.04755 45.9799 9.64343 45.9799ZM9.23019 41.8184C9.23019 41.5916 9.41524 41.4038 9.64343 41.4038H10.9096C11.1377 41.4038 11.3228 41.5916 11.3228 41.8184V43.0859C11.3228 43.3113 11.1363 43.4991 10.9096 43.4991H9.64343C9.41524 43.4991 9.23019 43.3113 9.23019 43.0859V41.8184Z" fill="#010002"/>
<path d="M18.3839 45.9799H19.65C21.2459 45.9799 22.5454 44.679 22.5454 43.0859V41.8184C22.544 40.2239 21.2459 38.9244 19.65 38.9244H18.3839C16.788 38.9244 15.4885 40.2253 15.4885 41.8184V43.0859C15.4885 44.6804 16.788 45.9799 18.3839 45.9799ZM17.9692 41.8184C17.9692 41.5916 18.1557 41.4038 18.3825 41.4038H19.6486C19.8768 41.4038 20.0618 41.5916 20.0618 41.8184V43.0859C20.0618 43.3113 19.8754 43.4991 19.6486 43.4991H18.3825C18.1543 43.4991 17.9692 43.3113 17.9692 43.0859V41.8184Z" fill="#010002"/>
<path d="M27.1243 45.9799H28.3905C29.9849 45.9799 31.2845 44.679 31.2845 43.0859V41.8184C31.2845 40.2239 29.9849 38.9244 28.3905 38.9244H27.1243C25.5285 38.9244 24.2275 40.2253 24.2275 41.8184V43.0859C24.2289 44.6804 25.5285 45.9799 27.1243 45.9799ZM26.7097 41.8184C26.7097 41.5916 26.8961 41.4038 27.1215 41.4038H28.3877C28.6159 41.4038 28.8037 41.5916 28.8037 41.8184V43.0859C28.8037 43.3113 28.6159 43.4991 28.3877 43.4991H27.1215C26.8934 43.4991 26.7097 43.3113 26.7097 43.0859V41.8184Z" fill="#010002"/>
<path d="M35.8648 29.6037H37.1309C38.7254 29.6037 40.0263 28.3042 40.0263 26.7083V25.4422C40.0263 23.8463 38.7254 22.5482 37.1309 22.5482H35.8648C34.2703 22.5482 32.9708 23.8477 32.9708 25.4422V26.7083C32.9708 28.3042 34.2703 29.6037 35.8648 29.6037ZM35.4515 25.4422C35.4515 25.2154 35.6394 25.0289 35.8648 25.0289H37.1309C37.3591 25.0289 37.5469 25.2154 37.5469 25.4422V26.7083C37.5469 26.9365 37.3591 27.1229 37.1309 27.1229H35.8648C35.6394 27.1229 35.4515 26.9365 35.4515 26.7083V25.4422Z" fill="#010002"/>
<path d="M44.6038 29.6037H45.87C47.4645 29.6037 48.7654 28.3042 48.7654 26.7083V25.4422C48.7654 23.8463 47.4672 22.5482 45.87 22.5482H44.6038C43.0094 22.5482 41.7098 23.8477 41.7098 25.4422V26.7083C41.7098 28.3042 43.008 29.6037 44.6038 29.6037ZM44.1906 25.4422C44.1906 25.2154 44.3771 25.0289 44.6038 25.0289H45.87C46.0981 25.0289 46.2846 25.2154 46.2846 25.4422V26.7083C46.2846 26.9365 46.0981 27.1229 45.87 27.1229H44.6038C44.3771 27.1229 44.1906 26.9365 44.1906 26.7083V25.4422Z" fill="#010002"/>
</g>
<defs>
<clipPath id="clip0">
<rect width="55" height="55" fill="white"/>
</clipPath>
</defs>
</svg>
