<svg width="58" height="57" viewBox="0 0 58 57" fill="none" xmlns="http://www.w3.org/2000/svg">
<g clip-path="url(#clip0)">
<path d="M29 23.0449C34.4343 23.0449 38.8555 18.7 38.8555 13.3594C38.8555 8.01874 34.4343 3.67383 29 3.67383C23.5657 3.67383 19.1445 8.01874 19.1445 13.3594C19.1445 18.7 23.5657 23.0449 29 23.0449ZM29 7.01367C32.5604 7.01367 35.457 9.86033 35.457 13.3594C35.457 16.8584 32.5604 19.7051 29 19.7051C25.4396 19.7051 22.543 16.8584 22.543 13.3594C22.543 9.86033 25.4396 7.01367 29 7.01367Z" fill="black"/>
<path d="M48.9375 23.0449C52.373 23.0449 55.168 20.2981 55.168 16.9219C55.168 13.5456 52.373 10.7988 48.9375 10.7988C45.502 10.7988 42.707 13.5456 42.707 16.9219C42.707 20.2981 45.502 23.0449 48.9375 23.0449ZM48.9375 14.1387C50.4991 14.1387 51.7695 15.3872 51.7695 16.9219C51.7695 18.4565 50.4991 19.7051 48.9375 19.7051C47.3759 19.7051 46.1055 18.4565 46.1055 16.9219C46.1055 15.3872 47.3759 14.1387 48.9375 14.1387Z" fill="black"/>
<path d="M50.3082 26.8301H47.6801C44.5831 26.8301 41.9096 28.6282 40.6914 31.2111C38.1833 28.5203 34.5806 26.8301 30.5836 26.8301H27.4166C23.4195 26.8301 19.8169 28.5203 17.3087 31.2111C16.0904 28.6282 13.4169 26.8301 10.3199 26.8301H7.6918C3.45055 26.8301 0 30.2006 0 34.3436V46.5018C0 48.3004 1.49463 49.7637 3.33183 49.7637H13.7228C13.897 51.7564 15.6021 53.3262 17.6744 53.3262H40.3257C42.3979 53.3262 44.103 51.7564 44.2773 49.7637H54.5496C56.4522 49.7637 58.0001 48.2485 58.0001 46.386V34.3436C58 30.2006 54.5495 26.8301 50.3082 26.8301ZM3.39844 34.3436C3.39844 32.0422 5.32445 30.1699 7.6918 30.1699H10.3199C12.6873 30.1699 14.6133 32.0422 14.6133 34.3436V35.4871C13.4706 38.411 13.707 40.1633 13.707 46.4238H3.39844V34.3436ZM40.8945 49.4273C40.8945 49.7356 40.6394 49.9863 40.3257 49.9863H17.6743C17.3606 49.9863 17.1055 49.7355 17.1055 49.4273V40.3032C17.1055 34.7157 21.731 30.1699 27.4164 30.1699H30.5834C36.269 30.1699 40.8945 34.7157 40.8945 40.3031V49.4273ZM54.6016 46.386C54.6016 46.4435 55.235 46.4238 44.293 46.4238C44.293 40.117 44.5276 38.4062 43.3867 35.4871V34.3436C43.3867 32.0422 45.3127 30.1699 47.6801 30.1699H50.3082C52.6756 30.1699 54.6016 32.0422 54.6016 34.3436V46.386Z" fill="black"/>
<path d="M9.0625 23.0449C12.498 23.0449 15.293 20.2981 15.293 16.9219C15.293 13.5456 12.498 10.7988 9.0625 10.7988C5.62702 10.7988 2.83203 13.5456 2.83203 16.9219C2.83203 20.2981 5.62702 23.0449 9.0625 23.0449ZM9.0625 14.1387C10.6241 14.1387 11.8945 15.3872 11.8945 16.9219C11.8945 18.4565 10.6241 19.7051 9.0625 19.7051C7.50092 19.7051 6.23047 18.4565 6.23047 16.9219C6.23047 15.3872 7.50092 14.1387 9.0625 14.1387Z" fill="black"/>
</g>
<defs>
<clipPath id="clip0">
<rect width="58" height="57" fill="white"/>
</clipPath>
</defs>
</svg>
