<svg width="55" height="55" viewBox="0 0 55 55" fill="none" xmlns="http://www.w3.org/2000/svg">
<g clip-path="url(#clip0)">
<path d="M43.6765 6.47059V0H6.47061V50.1471H12.9412V55H37.8759L48.5294 44.3465V6.47059H43.6765ZM9.70591 46.9118V3.23529H40.4412V6.47059H12.9412V46.9118H9.70591ZM16.1765 9.70588H45.2942V42.0588H35.5883V51.7647H16.1765V9.70588ZM43.0065 45.2941L38.8236 49.477V45.2941H43.0065Z" fill="black"/>
<path d="M19.4118 12.9412H42.0589V16.1765H19.4118V12.9412Z" fill="black"/>
<path d="M19.4118 19.4117H42.0589V22.647H19.4118V19.4117Z" fill="black"/>
<path d="M19.4118 25.8823H42.0589V29.1176H19.4118V25.8823Z" fill="black"/>
<path d="M19.4118 32.353H42.0589V35.5883H19.4118V32.353Z" fill="black"/>
<path d="M19.4118 38.8235H30.7353V42.0588H19.4118V38.8235Z" fill="black"/>
</g>
<defs>
<clipPath id="clip0">
<rect width="55" height="55" fill="white"/>
</clipPath>
</defs>
</svg>
