<svg width="55" height="56" viewBox="0 0 55 56" fill="none" xmlns="http://www.w3.org/2000/svg">
<path d="M12.8906 22.2031H8.64542C9.36257 12.25 17.5448 4.375 27.5 4.375C35.3777 4.375 42.506 9.42703 45.238 16.9465C45.6497 18.0795 46.8855 18.6582 47.9985 18.2392C49.1112 17.8199 49.6797 16.5617 49.2681 15.4285C47.6398 10.9468 44.747 7.11167 40.9027 4.3377C36.97 1.49997 32.3354 0 27.5 0C21.3023 0 15.4754 2.45744 11.0929 6.91961C6.76758 11.3236 4.36187 17.1603 4.29978 23.3786C1.73218 24.8934 0 27.7203 0 30.9531V38.3906C0 43.2154 3.85516 47.1406 8.59375 47.1406H12.8906C14.0772 47.1406 15.0391 46.1613 15.0391 44.9531V24.3906C15.0391 23.1825 14.0772 22.2031 12.8906 22.2031ZM10.7422 42.7656H8.59375C6.22445 42.7656 4.29688 40.803 4.29688 38.3906V30.9531C4.29688 28.5408 6.22445 26.5781 8.59375 26.5781H10.7422V42.7656Z" fill="black"/>
<path d="M46.4062 22.2031H42.1094C40.9228 22.2031 39.9609 23.1825 39.9609 24.3906V39.375V44.9531V47.25C39.9609 48.4562 38.9971 49.4375 37.8125 49.4375H31.2598V49.5068C30.5269 48.1612 29.1182 47.25 27.5 47.25C25.1269 47.25 23.2031 49.2088 23.2031 51.625C23.2031 54.0412 25.1269 56 27.5 56C29.1182 56 30.5269 55.0888 31.2598 53.7432V53.8125H37.8125C41.3664 53.8125 44.2578 50.8686 44.2578 47.25V47.1406H46.4062C51.1448 47.1406 55 43.2154 55 38.3906V30.9531C55 26.1284 51.1448 22.2031 46.4062 22.2031ZM50.7031 38.3906C50.7031 40.803 48.7755 42.7656 46.4062 42.7656H44.2578V39.375V26.5781H46.4062C48.7755 26.5781 50.7031 28.5408 50.7031 30.9531V38.3906Z" fill="black"/>
</svg>
