<svg width="59" height="58" viewBox="0 0 59 58" fill="none" xmlns="http://www.w3.org/2000/svg">
<g clip-path="url(#clip0)">
<path d="M1.72851 57.9999H33.0735C34.0282 57.9999 34.802 57.2392 34.802 56.3007V52.6757C34.802 50.4605 33.3566 48.5715 31.345 47.8701V45.6589C31.345 42.9689 29.1186 40.7808 26.3823 40.7808H8.41973C5.68337 40.7808 3.45702 42.9689 3.45702 45.6589V47.8701C1.44538 48.5715 0 50.4605 0 52.6757V56.3007C0 57.2392 0.773778 57.9999 1.72851 57.9999ZM8.41973 44.1792H26.3823C27.2123 44.1792 27.888 44.8429 27.888 45.6589V47.5781H6.91449V45.6589C6.91449 44.8429 7.58968 44.1792 8.41973 44.1792ZM3.45702 52.6757C3.45702 51.7385 4.2326 50.9765 5.18553 50.9765H29.616C30.5694 50.9765 31.345 51.7385 31.345 52.6757V54.6015H3.45702V52.6757Z" fill="black"/>
<path d="M19.9112 35.3756C21.6258 37.6142 24.882 38.078 27.1732 36.3823C28.6991 35.253 29.409 33.4494 29.201 31.7068C30.6874 31.4581 32.1238 31.0515 33.4895 30.5032L49.6735 51.6349C51.3885 53.8749 54.6452 54.3364 56.9355 52.6416C59.2195 50.9508 59.6791 47.7484 57.9591 45.5027L41.7755 24.371C42.6884 23.2324 43.4828 21.9885 44.1369 20.6535C45.8028 21.3403 47.7596 21.146 49.2684 20.0291C51.5528 18.3383 52.0124 15.1359 50.2925 12.8902L41.9749 2.02989C40.2549 -0.215816 36.9973 -0.66717 34.7129 1.02363C33.187 2.1529 32.4771 3.9561 32.6851 5.69868C26.1716 6.78945 20.6184 10.899 17.7501 16.7502C16.0873 16.0648 14.1391 16.2506 12.6177 17.3763C10.3279 19.0711 9.86964 22.2642 11.5936 24.5152L19.9112 35.3756ZM39.3731 26.8848L41.6814 29.8987L38.9194 31.9427L36.6111 28.9292C37.5893 28.3261 38.5129 27.642 39.3731 26.8848ZM54.8559 49.9264C54.0943 50.4902 53.0086 50.3397 52.4351 49.591L40.9986 34.6579L43.7606 32.6139L55.1971 47.5466C55.7706 48.2954 55.6171 49.3627 54.8559 49.9264ZM36.7925 3.73883C37.5564 3.17331 38.6417 3.32819 39.2133 4.07425L47.5304 14.9346C48.1039 15.6829 47.9509 16.7506 47.1892 17.3139C46.4263 17.879 45.3437 17.729 44.7689 16.9785L36.4513 6.11817C35.8779 5.36946 36.0309 4.30214 36.7925 3.73883ZM34.2632 8.91125C35.0118 9.88918 40.6718 17.2799 41.4329 18.2733C39.0738 23.9108 33.7883 27.8238 27.6233 28.4942L20.4536 19.1317C22.8155 13.4876 28.0924 9.58253 34.2632 8.91125ZM14.6973 20.0915C15.4585 19.5278 16.542 19.6751 17.1177 20.427L25.4352 31.2873C25.4352 31.2873 25.4352 31.2873 25.4352 31.2878C26.0082 32.036 25.8552 33.1033 25.094 33.6671C24.3324 34.2304 23.2467 34.0799 22.6732 33.3317L14.3557 22.4713C13.7813 21.7208 13.9339 20.6566 14.6973 20.0915Z" fill="black"/>
</g>
<defs>
<clipPath id="clip0">
<rect width="59" height="58" fill="white"/>
</clipPath>
</defs>
</svg>
