<svg id="Layer_5" enable-background="new 0 0 64 64" height="512" viewBox="0 0 64 64" width="512" xmlns="http://www.w3.org/2000/svg"><g><path d="m3 9.998v28.002c0 1.654 1.346 3 3 3h3v-30h-3c-1.125 0-2.164-.374-3-1.002z"/><path d="m39 20c0 4.962 4.038 9 9 9s9-4.038 9-9-4.038-9-9-9-9 4.038-9 9zm6 2h2v.146c0 .471.383.854.854.854h.292c.471 0 .854-.383.854-.854 0-.326-.181-.619-.473-.765l-1.95-.974c-.973-.487-1.577-1.466-1.577-2.553 0-1.274.845-2.343 2-2.709v-2.145h2v2.145c1.155.366 2 1.435 2 2.709v.146h-2v-.146c0-.471-.383-.854-.854-.854h-.292c-.471 0-.854.383-.854.854 0 .326.181.619.473.765l1.95.974c.973.487 1.577 1.466 1.577 2.553 0 1.274-.845 2.343-2 2.709v2.145h-2v-2.145c-1.155-.366-2-1.435-2-2.709z"/><path d="m20 42c0-2.73 1.104-5.195 2.878-7h-4.06l.1.194-.262.468c-.486.869-.875 1.81-1.153 2.796l-.146.517-2.357.754v4.541l2.356.755.146.517c.279.988.667 1.928 1.153 2.795l.263.469-1.13 2.195 3.211 3.211 2.195-1.129.468.262c.869.486 1.81.875 2.796 1.153l.517.146.754 2.356h5.271v-5.461c-.947.298-1.954.461-3 .461-5.523 0-10-4.477-10-10z"/><path d="m48 31c-3.408 0-6.459-1.559-8.479-4h-.521v6h18v-6h-.521c-2.02 2.441-5.071 4-8.479 4z"/><path d="m37 20c0-5.728 4.402-10.442 10-10.949v-6.051h-41c-1.654 0-3 1.346-3 3s1.346 3 3 3h5v24h22v-7c0-2.433 1.749-4.461 4.055-4.904-.035-.361-.055-.726-.055-1.096zm-24 1h10v2h-10zm18 10h-18v-2h18zm0-4h-18v-2h18zm-6-4v-2h2v2zm6 0h-2v-2h2zm0-4h-18v-2h18zm1-5h-18v-8h18z"/><path d="m58.559 23.057c-.196.677-.457 1.326-.773 1.943h1.214v10h-22v-10h1.214c-.317-.617-.577-1.266-.773-1.943-1.387.263-2.441 1.48-2.441 2.943v32c0 1.654 1.346 3 3 3h20c1.654 0 3-1.346 3-3v-32c0-1.463-1.054-2.68-2.441-2.943zm-16.559 34.943h-4v-4h4zm0-8h-4v-4h4zm0-8h-4v-4h4zm8 16h-4v-4h4zm0-8h-4v-4h4zm0-8h-4v-4h4zm8 16h-4v-12h4zm0-16h-4v-4h4z"/></g></svg>