<svg id="Capa_1" data-name="Capa 1" xmlns="http://www.w3.org/2000/svg" viewBox="0 0 297.85 342.66"><path d="M326.11,18.41c3.67,0,7.95,0,11.62-1.22,3.68-.61,3.68-7.34,0-8s-7.35-.62-11-1.23H320a7.76,7.76,0,0,0-3.67.61l-1.84,1.84c.61-1.23,1.22-1.23,0-.62-2.45,1.23-2.45,4.9,0,5.51h.61c1.22,1.23,2.45,1.23,4.28,1.23C321.21,18.41,323.66,18.41,326.11,18.41Z" transform="translate(-42.64 -0.01)"/><path d="M275.92,8c1.84,0,1.84-2.45,0-3.06-11-.62-22-3.68-33.05-3.68-6.73,0-6.74,10.4,0,10.4C253.89,11.66,264.91,9.22,275.92,8Z" transform="translate(-42.64 -0.01)"/><path d="M205.54,12.26c2.45.62,4.9-3,1.84-4.89a55,55,0,0,0-17.13-4.9c-5.51-.61-11-1.84-15.92.61a3.47,3.47,0,0,0,0,6.12c3.67,2.45,8,1.83,12.24,1.84A185.94,185.94,0,0,1,205.54,12.26Z" transform="translate(-42.64 -0.01)"/><path d="M121.7,11c6.12-2.45,11.63-4.28,17.75-4.89,3.67-.61,3.67-6.12,0-6.12a133.44,133.44,0,0,0-15.91.61C118,1.23,110.69,2.45,107,6.73c-1.83,1.84-1.22,6.12,1.84,6.73C113.74,14.69,117.42,12.85,121.7,11Z" transform="translate(-42.64 -0.01)"/><path d="M75.79,48.34c2.45-3.06,1.84-8,3.06-11.63A14.35,14.35,0,0,1,88,26.31c3.06-1.22.61-6.12-1.84-4.89a23.27,23.27,0,0,0-13.47,10.4C70.29,36.71,67.22,44.05,70.89,49A3.23,3.23,0,0,0,75.79,48.34Z" transform="translate(-42.64 -0.01)"/><path d="M69,108.93c6.74-7.35,4.9-19.59,4.29-28.77,0-4.28-6.11-4.28-6.73,0A91.42,91.42,0,0,1,65.38,93c-.62,4.29-2.45,9.18-1.84,13.47C63.54,108.93,66.6,111.37,69,108.93Z" transform="translate(-42.64 -0.01)"/><path d="M70.25,175c6.12-10.4,4.29-25.09,0-36.1-1.83-4.29-8-2.45-6.73,1.83,2.44,11,0,21.42-.62,32.44C62.29,177.47,68.41,178.69,70.25,175Z" transform="translate(-42.64 -0.01)"/><path d="M73.3,236.84c3.06-9.79,1.23-20.81.62-30.6,0-4.9-7.35-4.9-7.35,0-.61,9.8-2.45,21.42.61,30.6C67.79,240.51,72.07,240.51,73.3,236.84Z" transform="translate(-42.64 -0.01)"/><path d="M75.73,295c4.28-4.29,2.45-9.8,1.84-15.3a97.1,97.1,0,0,0-3.67-18.36c-1.83-4.29-8.57-3.07-7.34,1.83A63.37,63.37,0,0,1,69,281.51c0,4.9-1.23,9.18,2.44,12.85C72.06,296.2,74.51,296.2,75.73,295Z" transform="translate(-42.64 -0.01)"/><path d="M80,337.82c3.68-14.08,15.31-23.87,20.82-37.33,1.84-4.89-5.5-7.34-8.57-3.67C86.13,306,77.56,314,71.44,323.74c-3.06-3.67-6.12-7.35-9.18-11.63S58,301.09,53.7,298c-2.45-1.84-6.12-2.45-8.57,0-10.41,11.62,14.68,34.89,22.63,42.23C72.05,344.55,78.78,342.71,80,337.82Z" transform="translate(-42.64 -0.01)"/></svg>