<svg id="Capa_1" data-name="Capa 1" xmlns="http://www.w3.org/2000/svg" viewBox="0 0 297.85 342.66"><path d="M43.53,16.55c1.84,0,3.06,0,4.28-1.22h.62c2.44-.61,2.44-4.28,0-5.51-1.22-.61-.61-.61,0,.61L46.59,8.6A7.8,7.8,0,0,0,42.92,8H36.18c-3.67.61-7.34.61-11,1.23s-3.67,7.34,0,8c3.67,1.22,8,1.22,11.63,1.22C39.25,18.39,41.7,18.39,43.53,16.55Z" transform="translate(-22.42 0.01)"/><path d="M120,11.64c6.73,0,6.73-10.41,0-10.4-11,0-22,3.06-33,3.68C85.14,5.53,85.14,8,87,8,98,9.2,109,11.64,120,11.64Z" transform="translate(-22.42 0.01)"/><path d="M176.33,11c4.29,0,8.57.61,12.24-1.83a3.47,3.47,0,0,0,0-6.12c-4.9-2.45-10.4-1.23-15.91-.61a55.06,55.06,0,0,0-17.14,4.9c-3.06,1.83-.61,5.51,1.84,4.89A188.77,188.77,0,0,1,176.33,11Z" transform="translate(-22.42 0.01)"/><path d="M254.06,13.44c3.06-.61,3.67-4.89,1.83-6.73-3.67-4.28-11-5.5-16.52-6.12A133.77,133.77,0,0,0,223.45,0c-3.67,0-3.67,5.51,0,6.12,6.12.61,11.62,2.44,17.75,4.89C245.49,12.83,249.16,14.67,254.06,13.44Z" transform="translate(-22.42 0.01)"/><path d="M292,48.93c3.67-4.9.61-12.24-1.84-17.14a23.32,23.32,0,0,0-13.47-10.4c-2.44-1.22-4.89,3.68-1.83,4.9a14.3,14.3,0,0,1,9.18,10.4c1.23,3.67.62,8.57,3.06,11.63A3.25,3.25,0,0,0,292,48.93Z" transform="translate(-22.42 0.01)"/><path d="M299.37,106.46c.61-4.29-1.23-9.18-1.84-13.47a91.59,91.59,0,0,1-1.23-12.85c-.61-4.28-6.73-4.28-6.73,0-.61,9.18-2.44,21.42,4.29,28.77C296.31,111.35,299.37,108.9,299.37,106.46Z" transform="translate(-22.42 0.01)"/><path d="M300,173.16c-.62-11-3.07-21.42-.62-32.43,1.22-4.29-4.9-6.12-6.74-1.84-4.28,11-6.11,25.71,0,36.11C294.49,178.67,300.61,177.45,300,173.16Z" transform="translate(-22.42 0.01)"/><path d="M295.73,236.81c3.06-9.18,1.22-20.81.6-30.6,0-4.89-7.34-4.89-7.34,0-.61,9.8-2.44,20.81.62,30.6C290.83,240.49,295.12,240.48,295.73,236.81Z" transform="translate(-22.42 0.01)"/><path d="M291.46,294.34c3.67-3.67,2.45-8,2.45-12.85a62.69,62.69,0,0,1,2.44-18.36c1.22-4.9-5.51-6.12-7.35-1.84a98,98,0,0,0-3.66,18.36c-.61,5.51-2.45,11,1.84,15.3C288.4,296.18,290.85,296.18,291.46,294.34Z" transform="translate(-22.42 0.01)"/><path d="M295.14,340.24c8-7.35,33-30.61,22.64-42.23-2.45-2.45-6.13-1.84-8.57,0-4.29,3.06-5.51,9.79-8.57,14.08s-6.11,8-9.17,11.63c-6.13-9.79-14.7-17.75-20.82-26.93-3.06-3.67-10.4-1.22-8.57,3.68,5.52,13.46,17.15,23.25,20.82,37.33C284.13,342.69,290.86,344.53,295.14,340.24Z" transform="translate(-22.42 0.01)"/></svg>