<svg width="18" height="18" viewBox="0 0 18 18" fill="none" xmlns="http://www.w3.org/2000/svg">
<path d="M1.58203 2.14453H16.418C17.2892 2.14453 18 2.85455 18 3.72656V14.2734C18 15.1425 17.2924 15.8555 16.418 15.8555H1.58203C0.712969 15.8555 0 15.1478 0 14.2734V3.72656C0 2.8575 0.707624 2.14453 1.58203 2.14453ZM1.80049 3.19922L8.96646 10.3652L16.1944 3.19922H1.80049ZM16.9453 14.055V3.93993L11.866 8.97571L16.9453 14.055ZM16.1995 14.8008L11.117 9.71824L9.33609 11.4839C9.12994 11.6883 8.79725 11.6876 8.59194 11.4822L6.85547 9.74577L1.80046 14.8008H16.1995ZM1.05469 14.055L6.1097 9L1.05469 3.94495V14.055Z" fill="black"/>
</svg>
