<svg width="28" height="27" viewBox="0 0 28 27" fill="none" xmlns="http://www.w3.org/2000/svg">
<g clip-path="url(#clip0)">
<path d="M23.7624 0H4.03931C2.02997 0 0.401001 1.6289 0.401001 3.6383V23.3616C0.401001 25.371 2.0299 26.9999 4.03931 26.9999H13.7667L13.7832 17.3516H11.2766C10.9509 17.3516 10.6865 17.0882 10.6852 16.7624L10.6732 13.6524C10.6719 13.3248 10.9371 13.0587 11.2647 13.0587H13.7667V10.0536C13.7667 6.56619 15.8966 4.66728 19.0076 4.66728H21.5604C21.887 4.66728 22.1518 4.93207 22.1518 5.25875V7.88115C22.1518 8.2077 21.8872 8.47242 21.5607 8.47262L19.9941 8.47335C18.3022 8.47335 17.9746 9.2773 17.9746 10.4571V13.0587H21.6922C22.0464 13.0587 22.3212 13.368 22.2795 13.7198L21.9109 16.8299C21.8756 17.1275 21.6232 17.3517 21.3236 17.3517H17.9912L17.9746 27H23.7626C25.7719 27 27.4008 25.3711 27.4008 23.3618V3.6383C27.4007 1.6289 25.7718 0 23.7624 0Z" fill="#475993"/>
</g>
<defs>
<clipPath id="clip0">
<rect width="27" height="27" fill="white" transform="translate(0.400024)"/>
</clipPath>
</defs>
</svg>
