<svg width="27" height="27" viewBox="0 0 27 27" fill="none" xmlns="http://www.w3.org/2000/svg">
<g clip-path="url(#clip0)">
<path d="M1.68754 1.83712C-0.434209 4.041 4.10676e-05 6.38212 4.10676e-05 13.4944C4.10676e-05 19.4006 -1.03046 25.3215 4.36279 26.7154C6.04692 27.1485 20.9689 27.1485 22.6508 26.7131C24.8963 26.1337 26.7233 24.3124 26.973 21.1365C27.0079 20.6932 27.0079 6.30337 26.9719 5.85112C26.7064 2.46825 24.624 0.518624 21.8802 0.123749C21.2513 0.0326238 21.1253 0.00562379 17.8988 -1.21072e-06C6.45417 0.00562379 3.94542 -0.504001 1.68754 1.83712Z" fill="url(#paint0_linear)"/>
<path d="M13.4978 3.53138C9.41291 3.53138 5.53391 3.16801 4.05229 6.97051C3.44029 8.54101 3.52916 10.5806 3.52916 13.5011C3.52916 16.0639 3.44704 18.4725 4.05229 20.0306C5.53053 23.8354 9.44103 23.4709 13.4955 23.4709C17.4072 23.4709 21.4403 23.8781 22.9399 20.0306C23.553 18.4444 23.463 16.4351 23.463 13.5011C23.463 9.60638 23.6779 7.09201 21.789 5.20426C19.8765 3.29176 17.2902 3.53138 13.4933 3.53138H13.4978ZM12.6045 5.32801C21.1253 5.31451 22.2098 4.36726 21.6113 17.5264C21.3987 22.1805 17.8549 21.6697 13.4989 21.6697C5.55641 21.6697 5.32804 21.4425 5.32804 13.4966C5.32804 5.45851 5.95804 5.33251 12.6045 5.32576V5.32801ZM18.819 6.98288C18.1587 6.98288 17.6232 7.51838 17.6232 8.17876C17.6232 8.83913 18.1587 9.37463 18.819 9.37463C19.4794 9.37463 20.0149 8.83913 20.0149 8.17876C20.0149 7.51838 19.4794 6.98288 18.819 6.98288ZM13.4978 8.38126C10.6707 8.38126 8.37903 10.674 8.37903 13.5011C8.37903 16.3283 10.6707 18.6199 13.4978 18.6199C16.3249 18.6199 18.6154 16.3283 18.6154 13.5011C18.6154 10.674 16.3249 8.38126 13.4978 8.38126ZM13.4978 10.1779C17.8909 10.1779 17.8965 16.8244 13.4978 16.8244C9.10578 16.8244 9.09903 10.1779 13.4978 10.1779Z" fill="white"/>
</g>
<defs>
<linearGradient id="paint0_linear" x1="1.73931" y1="25.2755" x2="26.833" y2="3.55722" gradientUnits="userSpaceOnUse">
<stop stop-color="#FFDD55"/>
<stop offset="0.5" stop-color="#FF543E"/>
<stop offset="1" stop-color="#C837AB"/>
</linearGradient>
<clipPath id="clip0">
<rect width="27" height="27" fill="white"/>
</clipPath>
</defs>
</svg>
