<svg width="28" height="27" viewBox="0 0 28 27" fill="none" xmlns="http://www.w3.org/2000/svg">
<g clip-path="url(#clip0)">
<path d="M13.7 27C21.1558 27 27.2 20.9558 27.2 13.5C27.2 6.04416 21.1558 0 13.7 0C6.24411 0 0.199951 6.04416 0.199951 13.5C0.199951 20.9558 6.24411 27 13.7 27Z" fill="#4D76A1"/>
<path fill-rule="evenodd" clip-rule="evenodd" d="M13.19 19.421H14.2496C14.2496 19.421 14.5696 19.3858 14.733 19.2097C14.8835 19.048 14.8786 18.7443 14.8786 18.7443C14.8786 18.7443 14.8579 17.3225 15.5178 17.1131C16.1683 16.9069 17.0036 18.4872 17.8889 19.0949C18.5584 19.5548 19.0672 19.4539 19.0672 19.4539L21.4344 19.421C21.4344 19.421 22.6728 19.3447 22.0856 18.371C22.0375 18.2913 21.7437 17.6507 20.3255 16.3344C18.8412 14.9567 19.04 15.1795 20.828 12.7963C21.9169 11.345 22.3523 10.4589 22.2163 10.0794C22.0866 9.71794 21.2857 9.81348 21.2857 9.81348L18.6203 9.83008C18.6203 9.83008 18.4227 9.80313 18.2761 9.89073C18.133 9.97664 18.0408 10.1769 18.0408 10.1769C18.0408 10.1769 17.6189 11.3 17.0563 12.2551C15.8694 14.2706 15.3948 14.3769 15.2009 14.2518C14.7497 13.9601 14.8623 13.0801 14.8623 12.4549C14.8623 10.5017 15.1585 9.68738 14.2854 9.47657C13.9957 9.40654 13.7825 9.36033 13.0415 9.35287C12.0905 9.34301 11.2855 9.35576 10.8297 9.57908C10.5265 9.72757 10.2926 10.0585 10.435 10.0775C10.6112 10.1011 11.0102 10.185 11.2217 10.4731C11.4949 10.8447 11.4852 11.6792 11.4852 11.6792C11.4852 11.6792 11.6421 13.9784 11.1187 14.2641C10.7594 14.46 10.2666 14.06 9.20844 12.2315C8.66625 11.2949 8.25691 10.2596 8.25691 10.2596C8.25691 10.2596 8.17797 10.0662 8.03719 9.96268C7.86633 9.8373 7.62761 9.79735 7.62761 9.79735L5.09476 9.81396C5.09476 9.81396 4.71454 9.82455 4.57496 9.98987C4.45078 10.1369 4.56509 10.4411 4.56509 10.4411C4.56509 10.4411 6.54805 15.0803 8.79332 17.4183C10.8521 19.5617 13.19 19.421 13.19 19.421Z" fill="white"/>
</g>
<defs>
<clipPath id="clip0">
<rect width="27" height="27" fill="white" transform="translate(0.199951)"/>
</clipPath>
</defs>
</svg>
