<svg width="54" height="55" viewBox="0 0 54 55" fill="none" xmlns="http://www.w3.org/2000/svg">
<g clip-path="url(#clip0)">
<path d="M26.2217 14.0733V27.1563H13.1102C10.0941 27.1547 7.1708 26.1157 4.83284 24.2144C2.49488 22.3131 0.885204 19.6657 0.275054 16.7184C-0.335096 13.7711 0.0915805 10.704 1.48319 8.03396C2.87479 5.36392 5.14625 3.25415 7.91481 2.06016C9.90969 1.20269 12.0867 0.852955 14.2505 1.04233C16.4143 1.23171 18.4971 1.95428 20.3119 3.14517C22.1267 4.33607 23.6167 5.95801 24.6482 7.86539C25.6798 9.77277 26.2204 11.9059 26.2217 14.0733Z" fill="url(#paint0_linear)"/>
<path d="M27.6372 14.0732V27.1563H40.7487C43.7648 27.1547 46.6881 26.1156 49.0261 24.2143C51.364 22.313 52.9737 19.6657 53.5838 16.7184C54.194 13.7711 53.7673 10.704 52.3757 8.03394C50.9841 5.3639 48.7126 3.25412 45.9441 2.06013C43.9492 1.20267 41.7722 0.852932 39.6084 1.04231C37.4446 1.23169 35.3618 1.95426 33.547 3.14515C31.7322 4.33604 30.2422 5.95798 29.2107 7.86537C28.1792 9.77275 27.6385 11.9059 27.6372 14.0732Z" fill="url(#paint1_linear)"/>
<path d="M26.2211 41.7693V28.6882H13.1096C10.5168 28.6885 7.98242 29.4561 5.82682 30.8937C3.67122 32.3313 1.99123 34.3744 0.9993 36.7647C0.00736667 39.155 -0.251968 41.7851 0.254088 44.3225C0.760145 46.8598 2.00887 49.1905 3.84235 51.0197C5.67584 52.8489 8.01174 54.0946 10.5547 54.5992C13.0977 55.1038 15.7335 54.8446 18.1288 53.8545C20.5242 52.8643 22.5715 51.1877 24.0119 49.0366C25.4523 46.8854 26.2211 44.3564 26.2211 41.7693Z" fill="url(#paint2_linear)"/>
<path d="M33.9185 7.72173C33.8538 7.73919 33.7981 7.78022 33.7623 7.83672C33.6646 7.98873 33.5884 8.00238 33.358 7.91857C33.2434 7.87251 33.1184 7.85901 32.9966 7.87959C32.9146 7.90688 32.899 7.94196 32.8814 8.16219C32.8579 8.44088 32.856 8.44088 32.5747 8.64162C32.5201 8.67591 32.4767 8.72535 32.4497 8.78389C32.4107 8.86185 32.4087 8.86964 32.4029 9.15223C32.4066 9.26004 32.3981 9.36791 32.3775 9.47381C32.3443 9.52643 32.0279 9.9279 31.9048 10.0585C31.7852 10.2032 31.6411 10.3259 31.479 10.421C31.2837 10.534 31.2837 10.5535 31.2974 10.7309C31.3052 10.8171 31.3052 10.9038 31.2974 10.9901C31.2837 11.2005 31.3208 11.2493 31.5435 11.3136C31.6099 11.3331 31.7095 11.3662 31.7661 11.3896C31.8248 11.4121 31.8848 11.431 31.9458 11.4461C32.0814 11.4691 32.2204 11.4604 32.3521 11.4208C32.3993 11.3981 32.4518 11.3885 32.504 11.393C32.5562 11.3974 32.6063 11.4158 32.649 11.4461C32.8177 11.5273 32.9996 11.5781 33.1861 11.5962C33.4215 11.6413 33.6618 11.6557 33.9009 11.6391C34.0962 11.6196 34.0962 11.6235 34.1744 11.7326C34.2017 11.7755 34.2837 11.8807 34.356 11.9665C34.4466 12.058 34.5173 12.1672 34.5637 12.2873C34.6101 12.4073 34.6311 12.5356 34.6256 12.6642C34.6448 12.9069 34.6781 13.1483 34.7252 13.3872C34.8404 13.9466 35.0377 14.2486 35.2896 14.2525C35.4101 14.26 35.5285 14.2884 35.6392 14.3363C35.7779 14.4026 35.8502 14.4942 35.9869 14.7749C36.4107 15.6343 36.4068 15.6265 36.5143 15.7318C36.5734 15.7941 36.6436 15.845 36.7213 15.8818C36.8775 15.9578 36.8795 15.9617 36.8893 16.258C36.8939 16.5531 36.9134 16.8477 36.9479 17.1408C36.9688 17.248 36.9975 17.3535 37.0338 17.4566C37.1089 17.6548 37.1278 17.87 37.0885 18.0783C37.0494 18.316 36.8932 18.9533 36.8443 19.1404C36.8207 19.2817 36.7498 19.4109 36.6432 19.5068L36.4771 19.651C36.3863 19.7201 36.3105 19.807 36.2545 19.9063C36.2369 19.9492 36.2369 19.957 36.2545 19.9882C36.2721 20.0194 36.3775 20.0584 36.6451 20.0681L36.9146 20.0915C36.9146 20.0915 36.8756 20.1539 36.8307 20.2221C36.7428 20.3546 36.7271 20.3877 36.735 20.4423C36.7428 20.4969 36.7857 20.5144 37.2701 20.5144H37.7174L37.7994 20.4735C37.8478 20.4478 37.8906 20.4127 37.9251 20.3702C37.9596 20.3277 37.9852 20.2788 38.0003 20.2262C38.0154 20.1736 38.0198 20.1186 38.0131 20.0643C38.0065 20.01 37.9889 19.9576 37.9615 19.9102C37.9029 19.7855 37.8932 19.7154 37.9244 19.6491C37.9557 19.5828 38.0065 19.5438 38.0299 19.5438C38.0533 19.5438 38.0299 19.5809 38.0299 19.6238C38.0299 19.7154 38.0416 19.7504 38.1061 19.7504C38.1492 19.7434 38.189 19.7227 38.2196 19.6915C38.2501 19.6603 38.2699 19.6202 38.276 19.577C38.2623 19.5305 38.2439 19.4854 38.2213 19.4425C38.1382 19.2707 38.0973 19.0817 38.1022 18.891C38.0747 18.641 38.0747 18.3887 38.1022 18.1387C38.1237 17.9068 38.1139 17.9438 38.3502 17.2071C38.4303 16.9537 38.5455 16.5601 38.6178 16.332C38.7584 15.8585 38.8678 15.496 38.8873 15.4453C38.9228 15.3658 38.9804 15.2981 39.0534 15.2504C39.1051 15.2198 39.1654 15.2068 39.2252 15.2134C39.2597 15.2088 39.2947 15.211 39.3282 15.2201C39.3617 15.2291 39.3931 15.2447 39.4205 15.266C39.5464 15.3445 39.6824 15.4055 39.8248 15.4472C39.9362 15.4804 40.6393 15.6051 41.1335 15.6811C41.78 15.7785 42.1921 15.7513 42.6276 15.5837C42.6878 15.5582 42.7498 15.5374 42.8132 15.5213C42.8679 15.5213 42.9186 15.5642 42.987 15.6577C43.0523 15.7618 43.143 15.8476 43.2507 15.9072C43.4773 16.0592 43.5241 16.1255 43.5241 16.3203C43.5241 16.447 43.5398 16.4899 43.6023 16.5152C43.6648 16.5406 43.6765 16.5152 43.6765 16.3437C43.6765 16.1722 43.6765 16.1157 43.7273 16.1157H43.7507V16.3242C43.7477 16.4018 43.7522 16.4795 43.7644 16.5562C43.7789 16.5726 43.7979 16.5845 43.819 16.5904C43.8402 16.5963 43.8626 16.5959 43.8835 16.5893H43.9187V16.408C43.9187 16.3125 43.9187 16.2132 43.9187 16.1898C43.9195 16.1773 43.9232 16.1653 43.9295 16.1545C43.9357 16.1437 43.9444 16.1345 43.9547 16.1275C43.9651 16.1206 43.9769 16.1161 43.9893 16.1143C44.0016 16.1126 44.0142 16.1138 44.0261 16.1177C44.0905 16.143 44.1062 16.1956 44.1062 16.3983C44.1062 16.601 44.1062 16.6419 44.2097 16.6653C44.3132 16.6887 44.321 16.6965 44.3112 16.4704C44.3024 16.3914 44.3024 16.3117 44.3112 16.2326C44.3249 16.1976 44.3757 16.1352 44.3933 16.1352C44.3983 16.2183 44.3983 16.3016 44.3933 16.3847C44.3933 16.6283 44.3933 16.6341 44.4245 16.6595C44.4399 16.6719 44.458 16.6806 44.4773 16.6848C44.5241 16.6848 44.5769 16.5016 44.5886 16.295C44.5905 16.2292 44.5997 16.1639 44.6159 16.1001C44.6485 16.0593 44.6866 16.0232 44.7292 15.9929C44.862 15.8871 44.9705 15.7542 45.0476 15.6031C45.0746 15.5541 45.1052 15.5072 45.1394 15.4628C45.1523 15.5019 45.1602 15.5425 45.1628 15.5837C45.1764 15.6689 45.1764 15.7557 45.1628 15.8409C45.1374 16.0144 45.1003 16.5074 45.1003 16.6536C45.1063 16.7669 45.1207 16.8796 45.1433 16.9908C45.179 17.1506 45.194 17.3143 45.1882 17.478C45.1889 17.6481 45.1784 17.818 45.157 17.9867C45.1394 18.1231 45.1199 18.2849 45.112 18.3453C45.0808 18.6064 45.0066 18.735 44.6804 19.0722C44.5417 19.2184 44.5124 19.2554 44.5163 19.2866C44.5163 19.3509 44.5691 19.3607 44.946 19.3607C45.2468 19.3607 45.2956 19.3607 45.3367 19.3373C45.4499 19.2866 45.491 19.2164 45.5085 19.043C45.532 18.815 45.571 18.737 45.6589 18.737C45.7161 18.7333 45.7698 18.7082 45.8093 18.6668C45.8386 18.622 45.8367 18.5577 45.7976 18.4427C45.7662 18.2796 45.7609 18.1125 45.782 17.9477C45.7725 17.443 45.7907 16.9381 45.8367 16.4353C45.8796 15.9637 45.8796 15.9325 45.8367 15.7902C45.7839 15.5953 45.7976 15.5018 45.8894 15.4414C45.9187 15.4219 45.9226 15.4258 45.9558 15.4901C45.9903 15.5643 46.0203 15.6404 46.0457 15.7181C46.0769 15.8058 46.1238 15.9267 46.1511 15.9871C46.2285 16.167 46.2893 16.3536 46.3328 16.5445C46.3604 16.6857 46.4098 16.8218 46.4793 16.9479C46.616 17.2168 46.6082 17.1837 46.616 17.6359C46.6415 18.0713 46.602 18.5081 46.4988 18.9319C46.4193 19.1465 46.3227 19.3545 46.2097 19.5536C46.1101 19.7076 46.1101 19.7836 46.2097 19.8109C46.4483 19.8374 46.6888 19.8433 46.9285 19.8284C47.155 19.7855 47.2175 19.6686 47.1492 19.425C47.1121 19.2963 47.1101 19.1482 47.1492 19.1229C47.185 19.1057 47.2249 19.0989 47.2644 19.1034C47.3992 19.1034 47.4011 19.0917 47.2976 18.8871C47.1336 18.5655 47.1199 18.4349 47.1336 17.287C47.1336 16.8485 47.1492 16.4431 47.157 16.3866C47.1692 16.3079 47.1855 16.2298 47.2058 16.1527C47.2266 16.0823 47.239 16.0097 47.2429 15.9364C47.2429 15.8546 47.2429 15.837 47.1277 15.6285C46.9386 15.3086 46.8457 14.9413 46.8601 14.5702C46.8305 13.9439 46.852 13.3162 46.9246 12.6934C47.0066 12.136 47.1824 11.3935 47.2312 11.3935C47.2859 11.4733 47.3286 11.5606 47.3582 11.6527C47.4361 11.8681 47.4981 12.0889 47.5437 12.3134C47.6258 12.7032 47.6316 12.8006 47.6453 13.6016C47.6357 13.9617 47.6534 14.3219 47.698 14.6794C47.7591 15.1275 47.9156 15.5575 48.157 15.9403C48.3207 16.1799 48.5273 16.3874 48.7664 16.5523C48.842 16.6007 48.8986 16.6737 48.9266 16.7589C48.9405 16.8472 48.949 16.9364 48.9519 17.0259C48.9519 17.1447 48.9676 17.2441 48.9715 17.248C49.0273 17.1574 49.0669 17.0579 49.0887 16.9537C49.1742 16.6094 49.1362 16.246 48.9812 15.9267C48.8549 15.6884 48.6823 15.4778 48.4734 15.3069C48.0828 14.9347 47.9929 14.7885 47.909 14.4864C47.8484 14.2681 47.8386 14.1473 47.825 13.4866C47.8386 12.9971 47.798 12.5075 47.7039 12.0269C47.6495 11.7942 47.5716 11.5676 47.4715 11.3506C47.3829 11.1626 47.3116 10.9669 47.2586 10.7659C47.198 10.4833 47.0632 10.3567 46.45 10.0604C46.0593 9.86554 46.0437 9.86554 45.864 9.85384C45.729 9.84856 45.5941 9.86368 45.4636 9.89867C45.239 9.9547 45.0075 9.97833 44.7761 9.96883C44.5085 9.96883 44.4265 9.94544 43.6042 9.77394C43.3488 9.71124 43.0857 9.68564 42.8229 9.69793C42.6598 9.70883 42.4958 9.70033 42.3347 9.6726C42.0839 9.62591 41.8299 9.59919 41.5749 9.59269C41.1751 9.57465 40.7766 9.53365 40.3815 9.46991C40.0866 9.42703 39.6979 9.37636 39.5182 9.35297L38.5905 9.22824C38.2074 9.16168 37.8206 9.11873 37.4322 9.09961C37.2488 9.09924 37.0671 9.13431 36.8971 9.20291C36.6977 9.28424 36.4834 9.32276 36.2682 9.31594C36.1529 9.32387 36.0372 9.31133 35.9264 9.27891C35.8018 9.24092 35.6833 9.18512 35.5748 9.11326C35.5611 9.09961 35.6002 9.10351 35.7076 9.11326C35.8031 9.14739 35.9067 9.15208 36.0049 9.12671C36.1032 9.10134 36.1915 9.04708 36.2584 8.97099C36.4675 8.76485 36.6045 8.49695 36.649 8.20701C36.649 8.08228 36.5025 7.99848 36.2721 7.98484C36.0416 7.97119 35.8971 8.03356 35.4537 8.31615C35.2271 8.46232 35.1998 8.46622 35.024 8.37462C34.8487 8.30831 34.6981 8.18995 34.5923 8.03551C34.5317 7.93371 34.4461 7.84899 34.3436 7.78933C34.2411 7.72966 34.125 7.69701 34.0064 7.69445C33.9761 7.70005 33.9466 7.70921 33.9185 7.72173Z" fill="#DDE4EA"/>
<path d="M19.4456 7.18188C19.4512 7.32091 19.4279 7.45958 19.3773 7.58921L19.3577 7.63403L19.3245 7.57362C19.2855 7.50703 19.2227 7.45761 19.1487 7.43524C19.0667 7.42639 18.984 7.44368 18.9124 7.48464C18.8408 7.52561 18.7841 7.58814 18.7503 7.66327C18.7124 7.75652 18.6964 7.85717 18.7034 7.95755C18.7365 8.09216 18.8152 8.21124 18.9261 8.29471C18.9534 8.3142 18.9476 8.3142 18.8011 8.31615C18.4778 8.32118 18.1602 8.40125 17.8733 8.55002C17.5664 8.66533 17.2821 8.83355 17.0335 9.047C16.8861 9.19565 16.7551 9.35964 16.6428 9.53617C16.3616 9.92596 16.2385 10.0507 16.0452 10.1501C15.8186 10.267 15.592 10.3196 15.008 10.3937C14.5677 10.433 14.1344 10.5293 13.719 10.6802C13.1565 10.8653 13.0725 10.8751 12.8147 10.8946C12.4383 10.9005 12.0622 10.8705 11.6916 10.8049C11.339 10.752 11.0093 10.5984 10.7424 10.3625C10.6727 10.2789 10.6075 10.1917 10.547 10.1014C10.38 9.86163 10.1733 9.65205 9.9357 9.4816C9.52554 9.13859 9.47281 9.09182 9.32437 8.82287C9.24947 8.70174 9.15434 8.5943 9.04311 8.5052C8.98121 8.4594 8.91592 8.41835 8.8478 8.38241C8.67353 8.29072 8.51201 8.17672 8.36732 8.0433C8.22911 7.91773 8.08082 7.80366 7.92395 7.70224C7.76614 7.60989 7.57935 7.57998 7.40051 7.61844C7.34505 7.62572 7.29356 7.65107 7.25402 7.69055C7.19336 7.74447 7.15447 7.81861 7.14464 7.89908C7.16122 8.00738 7.20048 8.11098 7.25988 8.20311L7.33996 8.35318H7.20519C7.13808 8.34646 7.07042 8.35861 7.00988 8.38826C6.93651 8.42831 6.87618 8.48851 6.83604 8.56172C6.82741 8.58098 6.81447 8.59803 6.79822 8.61154C6.78198 8.62505 6.76284 8.63467 6.74229 8.63967C6.64816 8.68179 6.57058 8.75372 6.52159 8.84431C6.50008 8.89196 6.49069 8.94418 6.49424 8.99632C6.49424 9.123 6.52745 9.19121 6.66417 9.32959L6.76573 9.43873L6.7462 9.55176C6.70836 9.71853 6.73339 9.89336 6.81651 10.0429L6.8712 10.152L6.85753 10.2144C6.83664 10.3236 6.84404 10.4363 6.87901 10.5418C6.90185 10.5915 6.93001 10.6385 6.963 10.6821L7.02159 10.7601L6.9923 10.7893C6.95013 10.8299 6.91976 10.8811 6.9044 10.9374C6.9044 10.9803 6.93566 11.0251 7.00206 11.0739L7.06652 11.1187L6.96886 11.2103C6.85167 11.3194 6.83019 11.3565 6.83019 11.4559C6.82841 11.5138 6.84304 11.571 6.87241 11.621C6.90178 11.671 6.94469 11.7117 6.9962 11.7384L7.04894 11.7677L6.99034 11.8106C6.92807 11.8535 6.8784 11.9123 6.84647 11.9808C6.81455 12.0493 6.80151 12.1251 6.8087 12.2003C6.79958 12.2674 6.81189 12.3356 6.84386 12.3952C6.9224 12.5356 7.04151 12.649 7.18566 12.7207L7.28918 12.7733L7.2716 12.8298C7.24151 12.9843 7.24151 13.1431 7.2716 13.2976C7.29405 13.3955 7.33628 13.4879 7.39573 13.569C7.45517 13.6501 7.53057 13.7182 7.61731 13.7692C7.68371 13.8023 7.68371 13.8023 7.672 13.8374C7.66881 13.8783 7.66881 13.9193 7.672 13.9602C7.6788 14.0525 7.70409 14.1425 7.74636 14.2248C7.78863 14.3072 7.84703 14.3802 7.91809 14.4396L8.02552 14.5546L8.00989 14.6014C7.99554 14.6396 7.98951 14.6803 7.9922 14.721C7.99489 14.7617 8.00625 14.8013 8.02552 14.8372C8.09778 14.9892 8.22083 15.0574 8.51576 15.112C8.62318 15.1315 8.6349 15.1354 8.62709 15.1549C8.59972 15.2697 8.58855 15.3878 8.59389 15.5057C8.59365 15.6585 8.64528 15.8069 8.74037 15.9267C8.77194 15.9594 8.81037 15.9848 8.85292 16.0009C8.89547 16.0171 8.94107 16.0237 8.98647 16.0202C9.18179 16.0339 9.17202 16.0319 9.18179 16.0865C9.21272 16.2941 9.30999 16.4861 9.45913 16.6341C9.5939 16.7647 9.75992 16.7861 10.1056 16.716C10.1349 16.716 10.1349 16.716 10.1408 16.7881C10.1525 16.9596 10.2384 17.0356 10.4455 17.0648L10.5392 17.0785L10.6037 17.2032C10.7449 17.5493 10.9907 17.8429 11.3068 18.0432C11.3431 18.0608 11.3756 18.0853 11.4025 18.1153C11.4191 18.1427 11.4395 18.1676 11.4631 18.1894L11.5158 18.2439L11.5529 18.4622C11.5983 18.7942 11.6775 19.1207 11.7892 19.4367C11.8596 19.6316 11.8478 19.653 11.7014 19.7076C11.5824 19.7424 11.4745 19.8073 11.3883 19.8961C11.302 19.9849 11.2403 20.0946 11.2092 20.2143C11.1678 20.3445 11.1532 20.4817 11.1662 20.6177C11.1818 20.7346 11.2013 20.799 11.2306 20.8126C11.2599 20.8262 11.256 20.8126 11.2756 20.7912C11.3347 20.7158 11.4052 20.6501 11.4846 20.5963C11.5362 20.5618 11.5818 20.519 11.6193 20.4696C11.6848 20.3805 11.7752 20.3127 11.8791 20.2747L11.9846 20.2279L12.0197 20.2669C12.0757 20.3167 12.1426 20.3528 12.215 20.3721C12.2404 20.3909 12.2622 20.414 12.2795 20.4404C12.3596 20.548 12.4762 20.6228 12.6076 20.6508C12.7443 20.6859 12.7854 20.7268 12.9397 20.9822L13.0373 21.14L13.1154 21.0562C13.1602 21.0185 13.1959 20.9713 13.2199 20.918C13.2439 20.8647 13.2556 20.8067 13.2541 20.7483C13.2541 20.6275 13.2541 20.6177 13.0588 20.4189L12.9221 20.2747L13.0022 20.3332C13.0471 20.3624 13.1115 20.4092 13.1447 20.4345C13.2167 20.496 13.3036 20.5377 13.3967 20.5553C13.547 20.6019 13.7025 20.6294 13.8596 20.6372C14.0549 20.6372 14.133 20.6645 14.4162 20.8321L14.5608 20.9159C14.5608 20.9159 14.5217 20.5904 14.508 20.5261C14.4983 20.4427 14.4648 20.3639 14.4115 20.2989C14.3582 20.234 14.2873 20.1856 14.2073 20.1597C14.133 20.1383 13.799 20.0818 13.4787 20.035C13.299 20.0096 13.1311 19.9843 13.1057 19.9785C12.967 19.9473 13.0783 19.9083 13.3518 19.8908C13.4308 19.8791 13.5116 19.8906 13.5842 19.9239C13.646 19.9467 13.7061 19.9741 13.7639 20.0057L13.8323 20.0447V19.9902C13.8304 19.947 13.8225 19.9044 13.8088 19.8635C13.7788 19.7672 13.7229 19.681 13.6471 19.6143C13.5713 19.5476 13.4786 19.503 13.3791 19.4854C13.2678 19.4743 13.1555 19.4862 13.049 19.5205L12.7717 19.5731C12.7502 19.5731 12.7404 19.5731 12.7111 19.5127C12.6742 19.4409 12.6172 19.3813 12.5471 19.3412C12.5327 19.3349 12.5206 19.3245 12.5122 19.3113C12.5039 19.2981 12.4997 19.2827 12.5002 19.2671C12.5002 19.2398 12.4885 19.1697 12.4807 19.1092C12.4556 18.8892 12.4078 18.6724 12.3381 18.4622C12.3225 18.4223 12.3101 18.3813 12.301 18.3394L12.3537 18.316C12.4992 18.2078 12.6077 18.0574 12.6643 17.8853L12.6857 17.8308H12.7815C12.8743 17.834 12.967 17.8201 13.0549 17.7898C13.1696 17.7001 13.2681 17.5913 13.3459 17.4683C13.4084 17.3786 13.4631 17.3045 13.4651 17.3045C13.5207 17.357 13.5735 17.4123 13.6233 17.4702C13.7343 17.6219 13.8869 17.7383 14.0627 17.8054C14.1096 17.8054 14.1076 17.8054 14.3537 18.1465C14.5114 18.3718 14.6921 18.5801 14.8928 18.7682C15.0466 18.9009 15.1908 19.0441 15.3245 19.1969C15.2873 19.2099 15.2495 19.221 15.2112 19.2301C15.1318 19.2439 15.0562 19.2738 14.989 19.3181C14.9218 19.3624 14.8644 19.42 14.8205 19.4873C14.8034 19.5221 14.7753 19.5501 14.7405 19.5672C14.7061 19.5869 14.6762 19.6135 14.6526 19.6452C14.6129 19.7142 14.599 19.795 14.6135 19.8732C14.635 19.9941 14.6838 20.0525 14.8342 20.1422L14.9241 20.1967V20.0876C14.9123 19.9453 14.9241 19.8752 14.9866 19.8187C15.0155 19.7928 15.0497 19.7735 15.0867 19.7621C15.1238 19.7507 15.1629 19.7473 15.2014 19.7524C15.2606 19.7555 15.3196 19.7441 15.3733 19.7193L15.4924 19.6783L15.5217 19.7056C15.5374 19.7193 15.6018 19.8031 15.6643 19.8869C15.7555 20.0327 15.88 20.1549 16.0276 20.2435C16.2335 20.3563 16.3896 20.5419 16.4651 20.7639C16.4719 20.789 16.4832 20.8128 16.4983 20.834C16.5647 20.8004 16.6243 20.7548 16.6741 20.6996C16.7081 20.603 16.7129 20.4986 16.6878 20.3994C16.659 20.2652 16.6158 20.1346 16.5589 20.0096C16.5335 19.959 16.5335 19.9551 16.5589 19.9551C16.5986 19.9621 16.6377 19.9719 16.676 19.9843C16.8714 20.0408 17.1526 20.1149 17.3264 20.15C17.5513 20.184 17.7579 20.2933 17.9124 20.4598C18.0784 20.6138 18.1077 20.6197 18.1077 20.5008C18.1043 20.3723 18.0853 20.2447 18.0511 20.1207C17.9858 19.9318 17.8585 19.7704 17.6897 19.6627C17.6585 19.651 17.4944 19.6199 16.9397 19.5263L16.7444 19.4912H16.7151L16.7581 19.4523C16.8218 19.4133 16.8934 19.3889 16.9677 19.3808C17.042 19.3727 17.1171 19.3811 17.1878 19.4055C17.305 19.4308 17.3655 19.4347 17.3655 19.4211C17.2965 19.3203 17.2173 19.2269 17.1292 19.1424C17.0767 19.0766 17.0107 19.0228 16.9355 18.9848C16.8603 18.9468 16.7778 18.9254 16.6936 18.9221C16.6004 18.9174 16.5074 18.9359 16.4232 18.976C16.3389 19.0162 16.2661 19.0767 16.2112 19.1521C16.186 19.1821 16.1578 19.2095 16.1272 19.234C16.0608 19.1307 15.887 18.8734 15.7776 18.7156C15.6116 18.4778 15.5022 18.3258 15.2776 18.0627L15.1135 17.8678L15.1975 17.8015C15.3381 17.6943 15.3713 17.6066 15.3577 17.3299C15.344 17.0531 15.3459 17.0765 15.3792 16.9869C15.428 16.8428 15.4562 16.6925 15.4631 16.5406V16.3964L15.5842 16.3515C15.6676 16.3163 15.7573 16.2984 15.8479 16.2989C15.9417 16.2993 16.0349 16.2835 16.1233 16.2521C16.3949 16.136 16.6602 16.0059 16.9182 15.8624C17.0785 15.7342 17.2251 15.5898 17.3557 15.4316C17.4651 15.2952 17.6077 15.0886 17.8284 14.7437C17.9104 14.615 18.0608 14.3831 18.1604 14.2331C18.5511 13.6484 18.6917 13.319 18.973 12.3543C19.0276 12.1594 19.1058 11.9041 19.1448 11.7872C19.2166 11.5647 19.2753 11.3382 19.3206 11.1089C19.3636 10.8887 19.4105 10.5788 19.4124 10.5126V10.4541L19.4827 10.5106C19.53 10.5648 19.5928 10.6033 19.6627 10.6207C19.7325 10.6381 19.8061 10.6337 19.8734 10.6081C20.0464 10.5091 20.1884 10.364 20.2835 10.1891C20.3187 10.115 20.3206 10.1131 20.3206 9.95714C20.3206 9.87139 20.3206 9.80123 20.3206 9.80123C20.3206 9.80123 20.4046 9.86749 20.5042 9.95129C20.6319 10.0903 20.805 10.1795 20.9925 10.2027H21.0492L21.0921 10.037C21.1208 9.95573 21.134 9.86982 21.1312 9.78369C21.1312 9.63362 21.096 9.58879 20.7894 9.24578L20.6312 9.06843L20.6449 8.97489C20.6556 8.92921 20.6569 8.88186 20.6489 8.83564C20.6408 8.78943 20.6235 8.74532 20.598 8.70594C20.5335 8.62213 20.5335 8.61823 20.5785 8.55782C20.636 8.48181 20.6845 8.39941 20.723 8.31225C20.7586 8.20554 20.7667 8.09159 20.7464 7.98094C20.7065 7.82342 20.6116 7.68525 20.4788 7.59116L20.3617 7.49176V7.61454C20.3639 7.82359 20.3003 8.02807 20.18 8.19922C20.1652 8.21985 20.1482 8.23881 20.1292 8.25574C20.1292 8.25574 20.1546 8.1427 20.1898 8.00822C20.2298 7.89208 20.2515 7.77046 20.2542 7.64767V7.52099L20.1995 7.4138C20.1739 7.36236 20.1445 7.31286 20.1116 7.26569C20.0784 7.22866 20.0745 7.22671 20.0609 7.24425C20.0416 7.28839 20.0259 7.33401 20.014 7.38067C19.9962 7.44728 19.9734 7.51244 19.9456 7.57556C19.8988 7.66716 19.7503 7.93806 19.7503 7.92832C19.7503 7.91857 19.762 7.85816 19.7796 7.7802C19.8266 7.62029 19.8148 7.44889 19.7464 7.29687C19.7015 7.19553 19.5159 7.00453 19.4632 7.00453C19.4476 7.00258 19.4456 7.03377 19.4456 7.18188Z" fill="#DDE4EA"/>
<path d="M18.0745 30.5864C18.0292 30.6035 17.9854 30.6243 17.9436 30.6488C17.6545 30.9116 17.3794 31.1894 17.1194 31.481C16.8295 31.8422 16.5897 32.2407 16.4065 32.6659C16.1331 33.2233 16.0413 33.4318 15.8381 33.9385C15.7522 34.1549 15.6291 34.4433 15.5627 34.5817L15.3557 35.0358C15.1897 35.4158 15.1096 35.5289 15.008 35.5289C14.8323 35.5289 14.01 34.9286 13.6701 34.5544C13.6037 34.4803 13.4553 34.303 13.342 34.1646C12.9258 33.6449 12.4629 33.1641 11.9592 32.7283C11.6566 32.504 11.3231 32.3248 10.9689 32.1962C10.6303 32.0757 10.2715 32.0214 9.91226 32.0364C9.87397 32.0369 9.83615 32.045 9.80101 32.0602C9.76588 32.0754 9.73412 32.0974 9.70759 32.125C9.68106 32.1526 9.66028 32.1851 9.64646 32.2208C9.63264 32.2564 9.62606 32.2944 9.6271 32.3326C9.61982 32.3805 9.61005 32.428 9.5978 32.4749C9.58804 32.4983 9.5978 32.5041 9.5978 32.4983C9.5978 32.4924 9.6271 32.5431 9.64468 32.6406C9.70523 32.9738 9.86343 33.3149 10.2306 33.919C10.3615 34.1315 10.4982 34.3478 10.5353 34.4024C10.5724 34.4569 10.6662 34.6362 10.7463 34.7922C10.8399 34.9826 10.9436 35.168 11.0568 35.3476C11.6115 36.2071 11.6994 36.3026 12.1447 36.5637C12.3631 36.6886 12.5366 36.8788 12.6408 37.1075C12.8244 37.4251 12.8791 37.546 12.8811 37.6356C12.883 37.7253 12.842 37.7759 12.7053 37.8656C12.5686 37.9552 12.5627 37.9533 12.5783 37.9182C12.5939 37.8831 12.5646 37.8968 12.4768 37.9085C12.3004 37.9404 12.1286 37.9934 11.965 38.0663L11.7853 38.1346L11.8244 38.1677C11.8459 38.1852 11.8615 38.2028 11.8576 38.2028C11.7985 38.2192 11.7385 38.2322 11.6779 38.2417C11.5122 38.2659 11.3505 38.3124 11.1974 38.3801C11.0978 38.4327 10.9728 38.5419 10.9865 38.575C11.0002 38.6081 10.8478 38.6569 10.4181 38.8284C10.2703 38.8884 10.1284 38.9622 9.99429 39.0486C9.99429 39.0486 10.0216 39.0681 10.0509 39.0739H10.1095L9.99429 39.1928C9.93696 39.2519 9.88651 39.3173 9.8439 39.3877L9.80289 39.4579L9.87711 39.4169C10.0373 39.3253 10.0119 39.378 9.80093 39.5865C9.70797 39.6724 9.63007 39.7731 9.57046 39.8847C9.52163 39.9782 9.50991 40.0114 9.52944 40.0016C9.58999 39.9802 9.57827 40.0016 9.23842 40.3524C9.1017 40.4966 9.04311 40.5707 9.04311 40.596C9.04311 40.6214 9.09975 40.5824 9.16616 40.5473C9.20715 40.5243 9.25121 40.5073 9.29702 40.4966C9.3185 40.5161 9.18374 40.7071 9.04897 40.8474C8.99863 40.8968 8.95104 40.9488 8.90639 41.0034C8.94078 40.9993 8.97436 40.9901 9.006 40.9761C9.0353 40.9644 9.006 41.0209 8.93373 41.1515C8.86146 41.282 8.85951 41.2859 8.90248 41.2723C8.94545 41.2587 8.90248 41.2859 8.67201 41.4165C8.60913 41.4529 8.54907 41.494 8.49232 41.5393L8.43177 41.59H8.57435C8.68568 41.59 8.71498 41.59 8.71498 41.6134C8.71529 41.6203 8.71406 41.6272 8.71135 41.6336C8.70865 41.64 8.70455 41.6458 8.69935 41.6504C8.69439 41.6536 8.69024 41.6579 8.68719 41.663C8.68415 41.6681 8.68229 41.6737 8.68177 41.6796C8.68177 41.6913 8.68177 41.6913 8.70326 41.6796C8.72474 41.6679 8.80287 41.6387 8.80287 41.664C8.80227 41.6709 8.80383 41.6778 8.80733 41.6837C8.81083 41.6897 8.8161 41.6944 8.8224 41.6972C8.83412 41.6972 8.76967 41.7595 8.67982 41.8258C8.51206 41.9451 8.36662 42.0928 8.25013 42.2624C8.2306 42.2994 8.21888 42.3306 8.22474 42.3306L8.33607 42.2799C8.39271 42.2487 8.43958 42.2351 8.43958 42.2448C8.41018 42.3273 8.36943 42.4054 8.31849 42.4767C8.26746 42.5436 8.22847 42.6187 8.20325 42.6989C8.22843 42.6975 8.25305 42.6909 8.27552 42.6794L8.33997 42.6521L8.32825 42.6989C8.30196 42.7631 8.26924 42.8245 8.2306 42.8821C8.13684 43.0361 8.12512 43.077 8.18177 43.0575C8.20086 43.0508 8.22045 43.0456 8.24036 43.0419C8.26035 43.0369 8.27901 43.0276 8.29505 43.0146C8.32825 42.9854 8.26966 43.1004 8.16614 43.2641C8.13845 43.3064 8.11676 43.3523 8.10169 43.4005C8.08997 43.4453 8.10169 43.4453 8.12708 43.4298C8.15247 43.4142 8.16419 43.4142 8.16419 43.4161C8.16419 43.4181 8.12903 43.5038 8.08606 43.6013C8.0405 43.7031 8.00009 43.8072 7.96497 43.9131C7.922 44.0515 7.90832 44.2093 7.93958 44.2288C7.96958 44.2277 7.99868 44.2183 8.02356 44.2015L8.10169 44.1684C8.10683 44.2656 8.09289 44.363 8.06067 44.4549C8.00794 44.6751 8.00208 44.7199 8.03137 44.7082C8.06067 44.6965 8.05481 44.7082 8.03137 44.794C8.00794 44.8797 7.96887 44.9441 7.93372 45.0162C7.89856 45.0883 7.84778 45.1974 7.82239 45.2656L7.77356 45.3904H7.81262C7.85016 45.3849 7.88573 45.3701 7.91614 45.3475C7.93839 45.3303 7.96266 45.3159 7.9884 45.3046C7.98775 45.4078 7.97463 45.5105 7.94934 45.6106C7.922 45.7548 7.92004 45.7918 7.94934 45.7801C7.9259 45.8379 7.89713 45.8934 7.8634 45.9458C7.78141 46.0748 7.7232 46.2173 7.69152 46.3668C7.69152 46.3863 7.7091 46.3804 7.75598 46.3473L7.81848 46.2986L7.80676 46.5129C7.80371 46.6164 7.79194 46.7194 7.7716 46.8209C7.75598 46.8715 7.7384 46.9339 7.73254 46.9592L7.72082 47.0021L7.75793 46.9592C7.77551 46.9339 7.79699 46.9203 7.80285 46.9261C7.80852 46.9831 7.80852 47.0406 7.80285 47.0976C7.77551 47.3607 7.77356 47.351 7.85754 47.2769L7.93176 47.2145V47.31C7.93176 47.4172 7.95325 47.4309 7.9884 47.3588C8.02356 47.2867 8.01379 47.3159 8.0177 47.4348C8.0177 47.5049 8.02942 47.5615 8.03919 47.5615C8.04895 47.5615 8.05872 47.579 8.06653 47.5985C8.07434 47.618 8.07825 47.6355 8.10169 47.5985C8.12512 47.5615 8.12512 47.577 8.12512 47.6569C8.12512 47.7369 8.12512 47.7466 8.15052 47.7388C8.17591 47.731 8.18958 47.7388 8.21302 47.7875C8.23645 47.8362 8.26771 47.8577 8.33216 47.8226C8.39661 47.7875 8.42591 47.7914 8.45716 47.8655C8.48841 47.9395 8.49232 47.9337 8.53529 47.9337C8.58383 47.9247 8.62943 47.9039 8.6681 47.8733L8.75209 47.8148L8.80287 47.883C8.84584 47.9415 8.86146 47.9493 8.89076 47.9395C9.03035 47.9219 9.17201 47.9298 9.30874 47.9629C9.34387 47.9794 9.38149 47.9899 9.42007 47.9941C9.48206 48.0062 9.54285 48.0238 9.60171 48.0467C9.84551 48.118 10.0977 48.1567 10.3517 48.1617C10.5845 48.1917 10.8201 48.1917 11.0529 48.1617C11.0976 48.1448 11.1469 48.1448 11.1916 48.1617C11.2781 48.1761 11.3657 48.1826 11.4533 48.1812C11.5426 48.1949 11.6339 48.1862 11.7189 48.1559C11.7865 48.1214 11.8479 48.0759 11.9006 48.0214C11.9514 47.9688 11.9807 47.9454 11.9728 47.9668C11.965 47.9883 12.0158 48.0194 12.0861 47.9824C12.1564 47.9454 12.1525 47.9512 12.1525 47.9922C12.1525 48.0331 12.1643 48.035 12.2365 47.9922C12.3088 47.9493 12.3264 47.959 12.3264 48.0292C12.3264 48.0994 12.3459 48.0896 12.4475 48.0506C12.549 48.0117 12.5334 48.0253 12.5568 48.0877C12.5568 48.0877 12.592 48.076 12.6252 48.0448L12.6877 47.9863V48.0389C12.6877 48.1773 12.7268 48.1695 12.8459 48.0117C12.8746 47.9679 12.9103 47.9291 12.9514 47.8967C12.9872 47.8841 13.0203 47.865 13.049 47.8401C13.0841 47.8132 13.1229 47.7915 13.1643 47.7758C13.1777 47.7712 13.1896 47.7629 13.1986 47.7519C13.2076 47.7409 13.2133 47.7276 13.215 47.7135C13.215 47.6803 13.2326 47.6686 13.2404 47.6803C13.2483 47.692 13.2619 47.6803 13.2815 47.6589C13.301 47.6375 13.3166 47.6141 13.3244 47.6141C13.3451 47.6621 13.3595 47.7125 13.3674 47.7641C13.3787 47.8299 13.3937 47.8949 13.4123 47.959L13.4299 48.0058L13.5041 47.961C13.5317 47.9434 13.5612 47.929 13.592 47.9181C13.592 47.9181 13.6037 47.9454 13.6037 47.9785C13.6037 48.0117 13.6037 48.0389 13.5861 48.0389C13.5686 48.0389 13.5627 48.0682 13.6057 48.2026C13.6291 48.267 13.6486 48.3079 13.6506 48.2923C13.6526 48.2767 13.6701 48.2767 13.7248 48.3313C13.7622 48.3713 13.8103 48.3997 13.8635 48.4131L14.0178 48.4521C14.1009 48.4697 14.1868 48.4701 14.2701 48.4533C14.3534 48.4366 14.4324 48.403 14.5022 48.3547C14.5276 48.3352 14.5412 48.3352 14.6057 48.3644C14.663 48.393 14.7274 48.4045 14.7911 48.3976C14.8549 48.3907 14.9152 48.3656 14.9651 48.3254C14.9983 48.2864 15.0061 48.2903 15.0334 48.3488C15.0608 48.4073 15.1409 48.4599 15.3206 48.458C15.398 48.4663 15.4764 48.4535 15.5471 48.4209C15.6194 48.3819 15.7268 48.2767 15.7268 48.2397C15.7268 48.2026 15.7405 48.2397 15.7561 48.2533L15.7815 48.2884V48.2533C15.7764 48.2306 15.7692 48.2084 15.76 48.1871C15.76 48.1656 15.76 48.1578 15.7854 48.1578C15.8108 48.1578 15.8264 48.1578 15.7854 48.1247C15.7584 48.0964 15.7275 48.0721 15.6936 48.0526C15.6272 48.0117 15.6409 47.9883 15.7327 47.9863H15.7854L15.7444 47.9649C15.7151 47.9493 15.7092 47.9376 15.7229 47.9298C15.7366 47.922 15.7932 47.9493 15.7932 47.9824C15.7932 48.0155 15.7932 48.0058 15.8206 47.998C15.9124 47.9649 15.928 47.9668 15.9397 48.0214L15.9514 48.0721L16.0178 48.0039C16.0999 47.9201 16.1389 47.924 16.2463 48.0311C16.2894 48.0803 16.348 48.1133 16.4124 48.1247C16.6077 48.1637 16.6839 48.1247 16.7639 47.9941L16.8167 47.8986L16.8499 47.9512C16.8945 48.0096 16.9553 48.0534 17.0248 48.0774C17.0943 48.1013 17.1694 48.1042 17.2405 48.0857C17.2608 48.0769 17.2828 48.0724 17.305 48.0724C17.3271 48.0724 17.3491 48.0769 17.3694 48.0857C17.4008 48.0977 17.4336 48.1055 17.4671 48.1091C17.5688 48.0974 17.6651 48.0568 17.7444 47.9922C17.788 47.9518 17.8168 47.898 17.8264 47.8394C17.8359 47.7808 17.8257 47.7207 17.7972 47.6686C17.7737 47.5926 17.7737 47.5712 17.7972 47.5498C17.8206 47.5283 17.8264 47.5264 17.8401 47.54C17.8538 47.5537 17.887 47.5595 17.928 47.4621C17.9401 47.4277 17.9587 47.3959 17.9827 47.3685C17.9827 47.3685 17.9944 47.3217 17.9944 47.2652C17.9929 47.1892 17.9706 47.1151 17.93 47.0508C17.9043 47.0098 17.8833 46.966 17.8675 46.9203C17.8675 46.9086 17.8557 46.9027 17.8421 46.9203C17.8284 46.9378 17.8147 46.9203 17.8147 46.9203C17.8147 46.9203 17.6878 46.6903 17.68 46.7098C17.6721 46.7293 17.6429 46.7098 17.6429 46.6747C17.6523 46.6242 17.668 46.5751 17.6897 46.5285L17.7347 46.4213L17.7796 46.4856L17.8225 46.55L17.8421 46.4603C17.8458 46.4251 17.8558 46.3908 17.8714 46.359C17.8714 46.359 17.8968 46.3765 17.9143 46.4116L17.9456 46.4779V46.1348C17.9456 45.8776 17.9573 45.8094 17.969 45.8659C17.9737 45.8953 17.9837 45.9237 17.9983 45.9497C18.0501 45.9019 18.0936 45.8459 18.1272 45.784C18.2327 45.6262 18.3226 45.5248 18.387 45.5248C18.3987 45.5248 18.4143 45.5658 18.4202 45.6125C18.4261 45.6593 18.4378 45.6944 18.4436 45.6866C18.4646 45.6271 18.4796 45.5658 18.4886 45.5034C18.494 45.3871 18.5356 45.2753 18.6077 45.1838C18.6526 45.1351 18.6644 45.137 18.6897 45.2013C18.7151 45.2656 18.7112 45.2539 18.7249 45.1039C18.7295 44.914 18.7577 44.7255 18.8089 44.5426C18.8401 44.4568 18.9026 44.3711 18.9319 44.3711C18.9612 44.3711 18.9573 44.4101 18.971 44.4568C18.9806 44.4934 18.993 44.5293 19.0081 44.564C19.0081 44.5757 19.0433 44.4841 19.0687 44.3691C19.1273 44.0924 19.1722 43.9793 19.264 43.9053C19.3558 43.8312 19.3655 43.8449 19.3655 43.9365C19.3655 43.9891 19.3929 44.0027 19.4066 43.954C19.4066 43.9384 19.4241 43.8663 19.4359 43.7961C19.4421 43.69 19.4802 43.5881 19.5452 43.5038C19.5726 43.4824 19.5784 43.4843 19.6136 43.5291L19.6526 43.5759L19.6644 43.4473C19.6859 43.1861 19.7444 43.0361 19.8284 43.0244H19.8655L19.8206 42.9347C19.7641 42.8459 19.6986 42.7629 19.6253 42.6872C19.4417 42.4923 19.3577 42.3403 19.43 42.315C19.4531 42.2916 19.4699 42.2628 19.4788 42.2312C19.4964 42.1747 19.512 42.1571 19.5355 42.161C19.5589 42.1649 19.5648 42.161 19.553 42.1006C19.5412 42.046 19.5229 41.993 19.4984 41.9427C19.4515 41.8394 19.4495 41.8316 19.4749 41.8453C19.5003 41.8589 19.4886 41.7849 19.4222 41.6504C19.3735 41.5751 19.3496 41.4865 19.3538 41.397V41.2782L19.4163 41.3152C19.4495 41.3366 19.4827 41.3503 19.4866 41.3444C19.4905 41.3386 19.4183 41.1904 19.3362 41.1008C19.3013 41.0693 19.2744 41.0299 19.2581 40.9858C19.2371 40.9375 19.2049 40.8948 19.1644 40.8611C19.0687 40.7656 19.0608 40.7519 19.0608 40.6798C19.0591 40.5577 19.0164 40.4398 18.9397 40.3446C18.8011 40.1263 18.8011 40.0952 18.9397 40.1848C19.0784 40.2745 19.0921 40.2706 19.0921 40.2433C19.0736 40.1286 19.0373 40.0175 18.9847 39.9139C18.8745 39.7461 18.7341 39.6 18.5706 39.4832C18.4554 39.4072 18.4397 39.3799 18.4886 39.3273C18.5374 39.2747 18.5159 39.1792 18.3655 39.1129C18.1565 39.0213 18.139 38.9804 18.1233 38.5282C18.1412 38.2943 18.0996 38.0597 18.0022 37.8461C17.9055 37.6866 17.7715 37.5529 17.6116 37.4563C17.4651 37.355 17.4475 37.3374 17.4632 37.3082C17.4674 37.298 17.4696 37.2871 17.4696 37.2761C17.4696 37.265 17.4674 37.2541 17.4632 37.2439C17.4632 37.2186 17.4632 37.2049 17.5139 37.1893C17.5647 37.1737 17.5882 37.1581 17.5569 37.127C17.5257 37.0958 17.5569 37.0704 17.6116 37.0704C17.6663 37.0704 17.6624 37.0704 17.6526 37.0295C17.6291 36.9611 17.5839 36.9022 17.5237 36.8619C17.4436 36.7976 17.4417 36.7898 17.4866 36.5754C17.5298 36.385 17.6101 36.2049 17.7229 36.0453C17.885 35.7959 18.1409 35.3496 18.2132 35.2014C18.3219 34.9567 18.3968 34.6984 18.4358 34.4336C18.6623 33.5481 18.7681 32.6363 18.7503 31.7226C18.7503 31.1146 18.7503 31.0892 18.7171 30.9703C18.6958 30.8973 18.659 30.8297 18.6091 30.7722C18.5592 30.7147 18.4974 30.6686 18.428 30.6371C18.3198 30.5794 18.1946 30.5614 18.0745 30.5864Z" fill="#DDE4EA"/>
<path d="M53.788 52.9736C53.6063 53.4881 53.3485 53.8097 53.036 53.8409C52.9086 53.8402 52.7833 53.809 52.6704 53.75C52.5576 53.691 52.4606 53.6059 52.3875 53.5017C52.2031 51.6363 51.8515 49.7911 51.3367 47.9883C48.4597 37.737 40.4909 31.0113 27.6625 28.7174C40.571 30.4909 49.3426 35.9284 52.5555 46.318C53.2105 48.4846 53.6238 50.7166 53.788 52.9736Z" fill="url(#paint3_linear)"/>
</g>
<defs>
<linearGradient id="paint0_linear" x1="-22.6462" y1="44.5426" x2="61.1742" y2="-19.423" gradientUnits="userSpaceOnUse">
<stop stop-color="#006830" stop-opacity="0.8"/>
<stop offset="0.7" stop-color="#00B53E"/>
</linearGradient>
<linearGradient id="paint1_linear" x1="-1864.5" y1="7351.79" x2="9387.72" y2="-1234.51" gradientUnits="userSpaceOnUse">
<stop stop-color="#006830" stop-opacity="0.8"/>
<stop offset="0.7" stop-color="#00B53E"/>
</linearGradient>
<linearGradient id="paint2_linear" x1="-1458.05" y1="7948" x2="9793.75" y2="-639.003" gradientUnits="userSpaceOnUse">
<stop stop-color="#006830" stop-opacity="0.8"/>
<stop offset="0.7" stop-color="#00B53E"/>
</linearGradient>
<linearGradient id="paint3_linear" x1="55.9384" y1="50.8512" x2="29.3805" y2="26.8202" gradientUnits="userSpaceOnUse">
<stop stop-color="#006830" stop-opacity="0.8"/>
<stop offset="0.75" stop-color="#00B53E"/>
<stop offset="0.95" stop-color="#00B53E"/>
</linearGradient>
<clipPath id="clip0">
<rect width="53.8583" height="53.8583" fill="white" transform="translate(0 0.992126)"/>
</clipPath>
</defs>
</svg>
